<?xml version="1.0" encoding="UTF-8" standalone="no"?>
<!DOCTYPE svg PUBLIC "-//W3C//DTD SVG 1.1//EN" "http://www.w3.org/Graphics/SVG/1.1/DTD/svg11.dtd">
<!-- Created with Vectornator (http://vectornator.io/) -->
<svg height="100%" stroke-miterlimit="10" style="fill-rule:nonzero;clip-rule:evenodd;stroke-linecap:round;stroke-linejoin:round;" version="1.1" viewBox="0 0 500 500" width="100%" xml:space="preserve" xmlns="http://www.w3.org/2000/svg" xmlns:vectornator="http://vectornator.io" xmlns:xlink="http://www.w3.org/1999/xlink">
<defs/>
<g id="Untitled" vectornator:layerName="Untitled">
<path d="M168.402 397.596C168.402 399.596 166.102 401.196 163.202 401.196C159.902 401.496 157.602 399.896 157.602 397.596C157.602 395.596 159.902 393.996 162.802 393.996C165.802 393.696 168.402 395.296 168.402 397.596ZM137.302 393.096C136.602 395.096 138.602 397.396 141.602 397.996C144.202 398.996 147.202 397.996 147.802 395.996C148.402 393.996 146.502 391.696 143.502 390.796C140.902 390.096 138.002 391.096 137.302 393.096ZM181.502 391.396C178.602 392.096 176.602 393.996 176.902 396.296C177.202 398.296 179.802 399.596 182.802 398.896C185.702 398.196 187.702 396.296 187.402 394.296C187.102 392.396 184.402 391.096 181.502 391.396ZM246.8 8.19628C108.1 8.19628 2 113.496 2 252.196C2 363.096 71.8 457.996 171.5 491.396C184.3 493.696 188.8 485.796 188.8 479.296C188.8 473.096 188.5 438.896 188.5 417.896C188.5 417.896 118.5 432.896 103.8 388.096C103.8 388.096 92.4 358.996 76 351.496C76 351.496 53.1 335.796 77.6 336.096C77.6 336.096 102.5 338.096 116.2 361.896C138.1 400.496 174.8 389.396 189.1 382.796C191.4 366.796 197.9 355.696 205.1 349.096C149.2 342.896 92.8 334.796 92.8 238.596C92.8 211.096 100.4 197.296 116.4 179.696C113.8 173.196 105.3 146.396 119 111.796C139.9 105.296 188 138.796 188 138.796C208 133.196 229.5 130.296 250.8 130.296C272.1 130.296 293.6 133.196 313.6 138.796C313.6 138.796 361.7 105.196 382.6 111.796C396.3 146.496 387.8 173.196 385.2 179.696C401.2 197.396 411 211.196 411 238.596C411 335.096 352.1 342.796 296.2 349.096C305.4 356.996 313.2 371.996 313.2 395.496C313.2 429.196 312.9 470.896 312.9 479.096C312.9 485.596 317.5 493.496 330.2 491.196C430.2 457.996 498 363.096 498 252.196C498 113.496 385.5 8.19628 246.8 8.19628ZM99.7021 353.096C98.4021 354.096 98.7021 356.396 100.402 358.296C102.002 359.896 104.302 360.596 105.602 359.296C106.902 358.296 106.602 355.996 104.902 354.096C103.302 352.496 101.002 351.796 99.7021 353.096ZM88.9021 344.996C88.2021 346.296 89.2021 347.896 91.2021 348.896C92.8021 349.896 94.8021 349.596 95.5021 348.196C96.2021 346.896 95.2021 345.296 93.2021 344.296C91.2021 343.696 89.6021 343.996 88.9021 344.996ZM121.302 380.596C119.702 381.896 120.302 384.896 122.602 386.796C124.902 389.096 127.802 389.396 129.102 387.796C130.402 386.496 129.802 383.496 127.802 381.596C125.602 379.296 122.602 378.996 121.302 380.596ZM109.902 365.896C108.302 366.896 108.302 369.496 109.902 371.796C111.502 374.096 114.202 375.096 115.502 374.096C117.102 372.796 117.102 370.196 115.502 367.896C114.102 365.596 111.502 364.596 109.902 365.896Z" fill="#ffffff" fill-rule="nonzero" opacity="1" stroke="none"/>
</g>
</svg>
