<?xml version="1.0" encoding="UTF-8" standalone="no"?>
<!DOCTYPE svg PUBLIC "-//W3C//DTD SVG 1.1//EN" "http://www.w3.org/Graphics/SVG/1.1/DTD/svg11.dtd">
<!-- Created with Vectornator (http://vectornator.io/) -->
<svg height="100%" stroke-miterlimit="10" style="fill-rule:nonzero;clip-rule:evenodd;stroke-linecap:round;stroke-linejoin:round;" version="1.1" viewBox="0 0 500 500" width="100%" xml:space="preserve" xmlns="http://www.w3.org/2000/svg" xmlns:vectornator="http://vectornator.io" xmlns:xlink="http://www.w3.org/1999/xlink">
<defs/>
<clipPath id="ArtboardFrame">
<rect height="500" width="500" x="0" y="0"/>
</clipPath>
<g clip-path="url(#ArtboardFrame)" id="Untitled" vectornator:layerName="Untitled">
<path d="M129.214 6.25342C61.3977 6.25342 6.2285 61.4231 6.2285 129.239L6.2285 370.762C6.2285 438.577 61.3977 493.747 129.214 493.747L370.785 493.747C438.601 493.747 493.771 438.577 493.771 370.762L493.771 129.239C493.771 61.4231 438.601 6.25342 370.785 6.25342L129.214 6.25342ZM129.214 59.297L370.785 59.297C409.341 59.297 440.727 90.6837 440.727 129.239L440.727 370.762C440.727 409.317 409.341 440.702 370.785 440.702L129.214 440.702C90.6583 440.702 59.3227 409.317 59.3227 370.762L59.3227 129.239C59.3227 90.6837 90.6583 59.297 129.214 59.297Z" fill="#000000" fill-opacity="0" fill-rule="nonzero" opacity="1" stroke="none"/>
<path d="M249.992 177.504C210.028 177.504 177.488 210.029 177.488 249.992C177.488 289.971 210.028 322.511 249.992 322.511C289.972 322.511 322.495 289.971 322.495 249.992C322.495 210.029 289.972 177.504 249.992 177.504ZM249.992 177.504C210.028 177.504 177.488 210.029 177.488 249.992C177.488 289.971 210.028 322.511 249.992 322.511C289.972 322.511 322.495 289.971 322.495 249.992C322.495 210.029 289.972 177.504 249.992 177.504ZM370.778 59.2943L129.222 59.2943C90.6668 59.2943 59.2944 90.6667 59.2944 129.222L59.2944 370.778C59.2944 409.333 90.6668 440.706 129.222 440.706L370.778 440.706C409.334 440.706 440.705 409.333 440.705 370.778L440.705 129.222C440.705 90.6667 409.334 59.2943 370.778 59.2943ZM249.992 375.562C180.768 375.562 124.439 319.232 124.439 249.992C124.439 180.768 180.768 124.439 249.992 124.439C319.232 124.439 375.561 180.768 375.561 249.992C375.561 319.232 319.232 375.562 249.992 375.562ZM379.593 150.404C363.211 150.404 349.885 137.077 349.885 120.695C349.885 104.313 363.211 90.9866 379.593 90.9866C395.975 90.9866 409.302 104.313 409.302 120.695C409.302 137.077 395.975 150.404 379.593 150.404ZM249.992 177.504C210.028 177.504 177.488 210.029 177.488 249.992C177.488 289.971 210.028 322.511 249.992 322.511C289.972 322.511 322.495 289.971 322.495 249.992C322.495 210.029 289.972 177.504 249.992 177.504ZM370.778 59.2943L129.222 59.2943C90.6668 59.2943 59.2944 90.6667 59.2944 129.222L59.2944 370.778C59.2944 409.333 90.6668 440.706 129.222 440.706L370.778 440.706C409.334 440.706 440.705 409.333 440.705 370.778L440.705 129.222C440.705 90.6667 409.334 59.2943 370.778 59.2943ZM249.992 375.562C180.768 375.562 124.439 319.232 124.439 249.992C124.439 180.768 180.768 124.439 249.992 124.439C319.232 124.439 375.561 180.768 375.561 249.992C375.561 319.232 319.232 375.562 249.992 375.562ZM379.593 150.404C363.211 150.404 349.885 137.077 349.885 120.695C349.885 104.313 363.211 90.9866 379.593 90.9866C395.975 90.9866 409.302 104.313 409.302 120.695C409.302 137.077 395.975 150.404 379.593 150.404ZM249.992 177.504C210.028 177.504 177.488 210.029 177.488 249.992C177.488 289.971 210.028 322.511 249.992 322.511C289.972 322.511 322.495 289.971 322.495 249.992C322.495 210.029 289.972 177.504 249.992 177.504ZM-114.541-114.542L-114.541 614.542L614.541 614.542L614.541-114.542L-114.541-114.542ZM493.755 370.778C493.755 438.594 438.594 493.756 370.778 493.756L129.222 493.756C61.4062 493.756 6.24458 438.594 6.24458 370.778L6.24458 129.222C6.24458 61.4061 61.4062 6.24449 129.222 6.24449L370.778 6.24449C438.594 6.24449 493.755 61.4061 493.755 129.222L493.755 370.778ZM370.778 59.2943L129.222 59.2943C90.6668 59.2943 59.2944 90.6667 59.2944 129.222L59.2944 370.778C59.2944 409.333 90.6668 440.706 129.222 440.706L370.778 440.706C409.334 440.706 440.705 409.333 440.705 370.778L440.705 129.222C440.705 90.6667 409.334 59.2943 370.778 59.2943ZM249.992 375.562C180.768 375.562 124.439 319.232 124.439 249.992C124.439 180.768 180.768 124.439 249.992 124.439C319.232 124.439 375.561 180.768 375.561 249.992C375.561 319.232 319.232 375.562 249.992 375.562ZM379.593 150.404C363.211 150.404 349.885 137.077 349.885 120.695C349.885 104.313 363.211 90.9866 379.593 90.9866C395.975 90.9866 409.302 104.313 409.302 120.695C409.302 137.077 395.975 150.404 379.593 150.404ZM249.992 177.504C210.028 177.504 177.488 210.029 177.488 249.992C177.488 289.971 210.028 322.511 249.992 322.511C289.972 322.511 322.495 289.971 322.495 249.992C322.495 210.029 289.972 177.504 249.992 177.504ZM249.992 177.504C210.028 177.504 177.488 210.029 177.488 249.992C177.488 289.971 210.028 322.511 249.992 322.511C289.972 322.511 322.495 289.971 322.495 249.992C322.495 210.029 289.972 177.504 249.992 177.504ZM249.992 177.504C210.028 177.504 177.488 210.029 177.488 249.992C177.488 289.971 210.028 322.511 249.992 322.511C289.972 322.511 322.495 289.971 322.495 249.992C322.495 210.029 289.972 177.504 249.992 177.504ZM370.778 59.2943L129.222 59.2943C90.6668 59.2943 59.2944 90.6667 59.2944 129.222L59.2944 370.778C59.2944 409.333 90.6668 440.706 129.222 440.706L370.778 440.706C409.334 440.706 440.705 409.333 440.705 370.778L440.705 129.222C440.705 90.6667 409.334 59.2943 370.778 59.2943ZM249.992 375.562C180.768 375.562 124.439 319.232 124.439 249.992C124.439 180.768 180.768 124.439 249.992 124.439C319.232 124.439 375.561 180.768 375.561 249.992C375.561 319.232 319.232 375.562 249.992 375.562ZM379.593 150.404C363.211 150.404 349.885 137.077 349.885 120.695C349.885 104.313 363.211 90.9866 379.593 90.9866C395.975 90.9866 409.302 104.313 409.302 120.695C409.302 137.077 395.975 150.404 379.593 150.404ZM249.992 177.504C210.028 177.504 177.488 210.029 177.488 249.992C177.488 289.971 210.028 322.511 249.992 322.511C289.972 322.511 322.495 289.971 322.495 249.992C322.495 210.029 289.972 177.504 249.992 177.504ZM249.992 177.504C210.028 177.504 177.488 210.029 177.488 249.992C177.488 289.971 210.028 322.511 249.992 322.511C289.972 322.511 322.495 289.971 322.495 249.992C322.495 210.029 289.972 177.504 249.992 177.504ZM249.992 177.504C210.028 177.504 177.488 210.029 177.488 249.992C177.488 289.971 210.028 322.511 249.992 322.511C289.972 322.511 322.495 289.971 322.495 249.992C322.495 210.029 289.972 177.504 249.992 177.504ZM370.778 59.2943L129.222 59.2943C90.6668 59.2943 59.2944 90.6667 59.2944 129.222L59.2944 370.778C59.2944 409.333 90.6668 440.706 129.222 440.706L370.778 440.706C409.334 440.706 440.705 409.333 440.705 370.778L440.705 129.222C440.705 90.6667 409.334 59.2943 370.778 59.2943ZM249.992 375.562C180.768 375.562 124.439 319.232 124.439 249.992C124.439 180.768 180.768 124.439 249.992 124.439C319.232 124.439 375.561 180.768 375.561 249.992C375.561 319.232 319.232 375.562 249.992 375.562ZM379.593 150.404C363.211 150.404 349.885 137.077 349.885 120.695C349.885 104.313 363.211 90.9866 379.593 90.9866C395.975 90.9866 409.302 104.313 409.302 120.695C409.302 137.077 395.975 150.404 379.593 150.404ZM249.992 177.504C210.028 177.504 177.488 210.029 177.488 249.992C177.488 289.971 210.028 322.511 249.992 322.511C289.972 322.511 322.495 289.971 322.495 249.992C322.495 210.029 289.972 177.504 249.992 177.504Z" fill="#000000" fill-opacity="0" fill-rule="nonzero" opacity="1" stroke="#007aff" stroke-linecap="butt" stroke-linejoin="round" stroke-opacity="0" stroke-width="10"/>
<path d="M129.215 6.25327C61.3982 6.25327 6.2283 61.4225 6.2283 129.239L6.2283 370.761C6.22814 438.576 61.3982 493.747 129.215 493.747L370.786 493.747C438.603 493.747 493.772 438.576 493.772 370.761L493.772 129.239C493.772 61.4225 438.603 6.25327 370.786 6.25327L129.215 6.25327ZM129.215 59.298L370.786 59.298C409.341 59.2963 440.729 90.6831 440.726 129.239L440.726 370.761C440.726 409.316 409.341 440.703 370.786 440.703L129.215 440.703C90.6588 440.703 59.3216 409.316 59.3216 370.761L59.3216 129.239C59.3216 90.6831 90.6588 59.298 129.215 59.298ZM379.586 90.9935C363.203 90.9935 349.888 104.307 349.888 120.689C349.888 137.072 363.203 150.387 379.586 150.387C395.967 150.387 409.281 137.072 409.281 120.689C409.281 104.307 395.967 90.9935 379.586 90.9935ZM250.001 124.439C180.776 124.439 124.464 180.751 124.464 249.975C124.464 319.214 180.776 375.561 250.001 375.561C319.24 375.561 375.586 319.214 375.586 249.975C375.586 180.751 319.24 124.439 250.001 124.439ZM250.001 177.482C289.979 177.484 322.491 210.011 322.491 249.975C322.491 289.954 289.979 322.517 250.001 322.517C210.037 322.517 177.508 289.954 177.508 249.975C177.508 210.011 210.037 177.482 250.001 177.482Z" fill="#ffffff" fill-rule="nonzero" opacity="1" stroke="none"/>
</g>
</svg>
