<?xml version="1.0" encoding="UTF-8" standalone="no"?>
<!DOCTYPE svg PUBLIC "-//W3C//DTD SVG 1.1//EN" "http://www.w3.org/Graphics/SVG/1.1/DTD/svg11.dtd">
<!-- Created with Vectornator (http://vectornator.io/) -->
<svg height="100%" stroke-miterlimit="10" style="fill-rule:nonzero;clip-rule:evenodd;stroke-linecap:round;stroke-linejoin:round;" version="1.1" viewBox="0 0 500 500" width="100%" xml:space="preserve" xmlns="http://www.w3.org/2000/svg" xmlns:vectornator="http://vectornator.io" xmlns:xlink="http://www.w3.org/1999/xlink">
<defs/>
<g id="Untitled" vectornator:layerName="Untitled">
<path d="M450.55 5.10426L49.4502 5.10426C24.9607 5.10426 5.10426 24.9607 5.10426 49.4502L5.10426 450.55C5.10426 475.039 24.9607 494.896 49.4502 494.896L450.55 494.896C475.039 494.896 494.896 475.039 494.896 450.55L494.896 49.4502C494.896 24.9607 475.039 5.10426 450.55 5.10426ZM156.675 428.046C156.675 435.327 150.718 440.622 144.099 440.622L89.1631 440.622C81.8824 440.622 76.5873 434.665 76.5873 428.046L76.5873 197.711C76.5873 190.431 82.5443 185.136 89.1631 185.136L144.099 185.136C151.38 185.136 156.675 191.093 156.675 197.711C156.675 197.711 156.675 428.046 156.675 428.046ZM116.3 163.294C87.1774 163.294 64.0116 140.128 64.0116 111.005C64.0116 81.8824 87.1774 58.7166 116.3 58.7166C145.423 58.7166 168.589 81.8824 168.589 111.005C168.589 140.128 145.423 163.294 116.3 163.294ZM443.269 429.37C443.269 435.988 437.974 441.283 431.355 441.283L372.448 441.283C365.829 441.283 360.534 435.988 360.534 429.37L360.534 320.821C360.534 304.936 365.167 250 318.174 250C281.77 250 274.49 287.065 273.166 304.274L273.166 428.708C273.166 435.327 267.871 440.622 261.252 440.622L204.33 440.622C197.711 440.622 192.416 435.327 192.416 428.708L192.416 197.05C192.416 190.431 197.711 185.136 204.33 185.136L261.252 185.136C267.871 185.136 273.166 190.431 273.166 197.05L273.166 216.906C286.403 196.388 306.922 181.164 349.282 181.164C443.269 181.164 443.269 269.195 443.269 317.512L443.269 429.37L443.269 429.37Z" fill="#ffffff" fill-rule="nonzero" opacity="1" stroke="none"/>
</g>
</svg>
